<?xml version="1.0" standalone="no"?>
<!DOCTYPE svg PUBLIC "-//W3C//DTD SVG 20010904//EN"
 "http://www.w3.org/TR/2001/REC-SVG-20010904/DTD/svg10.dtd">
<svg version="1.0" xmlns="http://www.w3.org/2000/svg"
 width="2000.000000pt" height="2000.000000pt" viewBox="0 0 2000.000000 2000.000000"
 preserveAspectRatio="xMidYMid meet">

<g transform="translate(0.000000,2000.000000) scale(0.100000,-0.100000)"
fill="#000000" stroke="none">
<path d="M3504 19649 c-1306 -71 -2207 -434 -2693 -1084 -279 -374 -425 -810
-461 -1379 -8 -121 -10 -2343 -8 -7651 4 -6987 5 -7486 21 -7575 38 -211 84
-355 172 -535 96 -197 215 -362 375 -524 318 -320 689 -502 1122 -550 68 -8
1847 -11 6008 -11 l5910 0 0 63 c0 118 -20 452 -35 597 -133 1244 -677 2052
-1589 2355 -151 50 -355 97 -506 115 -52 6 -106 14 -120 17 -14 4 -1753 9
-3865 12 l-3840 6 -3 8078 -2 8077 -173 -1 c-94 -1 -235 -5 -313 -10z"/>
<path d="M7855 15569 c-354 -23 -723 -95 -1005 -196 -161 -57 -418 -184 -545
-268 -446 -297 -721 -674 -830 -1140 -53 -225 -50 68 -50 -5265 l0 -4965 1345
0 1345 0 3 2803 2 2803 -105 292 c-57 161 -212 593 -343 960 -208 579 -237
669 -223 676 50 26 203 73 211 65 5 -5 104 -259 220 -564 117 -305 281 -735
365 -955 84 -220 259 -677 388 -1015 230 -600 524 -1369 832 -2175 84 -220
247 -647 363 -950 116 -302 285 -746 377 -985 91 -239 209 -547 262 -685 52
-137 99 -255 105 -262 7 -9 166 -13 616 -16 649 -4 677 -6 929 -64 40 -9 74
-15 77 -12 2 2 83 222 180 488 l177 484 -120 301 c-141 355 -412 1037 -626
1576 -84 212 -275 693 -425 1070 -150 377 -342 861 -427 1075 -85 215 -206
518 -268 675 -62 157 -197 497 -300 755 -103 259 -238 598 -300 755 -62 157
-192 483 -288 725 -96 242 -353 888 -570 1435 -365 919 -680 1711 -929 2338
l-100 252 -112 -1 c-61 -1 -165 -5 -231 -10z"/>
<path d="M16811 15209 c-286 -758 -470 -1244 -656 -1734 -106 -280 -251 -665
-323 -855 -342 -905 -456 -1207 -607 -1605 -90 -236 -247 -653 -350 -925 -103
-272 -249 -659 -325 -860 -140 -368 -472 -1246 -710 -1875 -71 -187 -186 -491
-255 -675 -70 -184 -158 -416 -195 -515 -37 -99 -118 -313 -180 -475 -61 -162
-149 -394 -195 -515 -45 -121 -198 -525 -340 -899 -141 -373 -254 -683 -252
-690 3 -6 36 -22 73 -35 356 -123 744 -404 997 -721 144 -180 299 -448 392
-675 20 -49 40 -94 44 -98 5 -4 22 29 39 75 17 46 105 279 197 518 92 239 273
712 402 1050 129 338 323 845 430 1125 107 281 271 708 363 950 203 532 693
1813 870 2275 71 184 257 673 415 1085 158 413 347 908 421 1100 73 193 196
514 273 715 79 207 145 366 153 368 7 1 58 -15 113 -36 72 -27 99 -43 97 -54
-2 -13 -359 -985 -613 -1668 l-79 -215 3 -3480 3 -3480 22 -115 c12 -63 34
-158 48 -210 205 -753 833 -1209 1859 -1349 194 -26 345 -39 583 -47 l192 -7
0 6460 c0 4490 -3 6493 -11 6569 -56 579 -351 1044 -883 1396 -439 289 -1016
450 -1711 475 l-170 6 -134 -354z"/>
</g>
</svg>
